<?xml version="1.0" encoding="utf-8"?>
<!-- Generator: Adobe Illustrator 28.1.0, SVG Export Plug-In . SVG Version: 6.00 Build 0)  -->
<svg version="1.1" id="Layer_1" xmlns="http://www.w3.org/2000/svg" xmlns:xlink="http://www.w3.org/1999/xlink" x="0px" y="0px"
	 viewBox="0 0 320 320" style="enable-background:new 0 0 320 320;" xml:space="preserve">
<g>
	<path d="M72.97,114.65c0,2.09-0.7,3.61-1.29,4.56c-7.62,10.08-14.43,19.59-20.64,28.14v3.23c-0.35,25.1-6.1,56.1-16.42,85.19
		c-17.59,50.96-43.28,30.05-30.96-16.54c6.8-25.48,19.82-48.68,39.64-77.01c-0.35-7.8-1.41-10.27-3.28-10.84
		c-1.17,1.52-2.35,2.85-3.4,4.18c-6.69,6.85-10.44,5.52-11.96,0.38c-1.76-6.65,3.05-12.55,7.86-15.21c1.53-0.95,3.17-1.52,4.69-1.71
		c6.1-9.7,8.09-18.45,6.33-20.16c-3.64-3.99-13.37,8.75-21.34,20.35c-3.52,5.51-8.91-3.8-4.93-9.13
		c7.98-11.6,21.81-30.61,30.49-21.49c5.86,6.27,3.87,20.92-2.46,33.85c1.88,2.28,3.4,5.9,4.46,10.84
		c5.28-7.42,10.91-15.21,17.01-23.2C69.1,106.66,72.97,109.51,72.97,114.65z M28.17,230.07c8.68-24.91,13.72-50.01,15.01-71.5
		c-16.54,24.34-26.86,44.12-32.49,65.6C1.43,258.4,14.68,268.67,28.17,230.07z"/>
	<path d="M61.42,116.68c9.15-12.74,16.19-25.67,21.11-37.46c1.76-6.65,3.52-12.74,5.04-17.3c1.99-6.27,4.22-9.13,7.15-6.09
		c2.58,3.04,1.64,6.85,0.23,12.36c-1.41,5.13-3.4,11.03-5.86,16.92c-2.7,10.08-5.28,21.68-7.51,32.33
		c11.38-18.82,27.56-42.78,34.83-32.71c8.09,11.6-9.15,27.76-19,36.32c-0.12,0.19-0.12,0.19,0.24,1.33c0.94,3.8,2.23,6.46,5.98,5.7
		c3.4-0.57,8.8-4.75,13.25-11.22c3.52-5.51,8.91,3.61,4.93,9.13c-5.28,7.8-12.67,13.31-17.24,14.26
		c-8.33,1.52-12.32-7.61-13.96-12.93c-0.59-2.09-0.82-3.99-0.94-5.71c-4.1,6.65-7.98,13.5-10.79,18.44
		c-4.11,7.61-9.5,3.04-7.98-6.85c0.82-5.7,2.11-12.55,3.64-19.78c-2.58,4.18-5.28,8.37-8.21,12.55
		C62.71,131.51,57.43,122.19,61.42,116.68z M111.5,94.05c-1.29-1.9-5.63,3.04-10.91,10.46C106.46,99.19,111.62,94.05,111.5,94.05z"
		/>
	<path d="M161.7,129.91c-5.77,8.31-11.93,16.13-16.99,14.23c-5.48-2.28-6.41-13.5-4.97-24.53c0.21-1.52,0.41-3.04,0.62-4.37
		c-4.34,6.27-11.27,19.02-16.65,28.52c-5.17,9.32-8.69,1.9-6.83-7.61l1.45-7.99c-0.41,0.76-0.93,1.52-1.34,2.09
		c-2.07,3.42-5.48,0.57-5.48-4.56c0-1.9,0.52-3.61,1.14-4.56c2.07-3.42,4.45-7.99,6.41-11.98c1.03-2.09,1.97-3.99,2.79-5.51
		c4.03-7.8,8.27-2.28,6.52,6.84l-1.97,11.41c6.52-11.6,13.86-23.2,18.1-22.63c4.76,0.76,4.76,7.8,2.79,16.92
		c-0.41,2.28-0.83,4.18-1.14,6.09c-0.93,7.23-0.83,9.7,0,10.08c2.07,0.76,6.43-5.51,11.25-11.89
		C161.17,115.48,165.43,124.54,161.7,129.91z"/>
	<path d="M154.65,123.89c9.26-13.69,16.07-27.57,20.76-38.6c1.64-7.61,3.75-14.26,5.4-18.82c3.52-8.75,9.74-5.13,7.27,6.27
		c-0.94,4.18-3.05,10.84-6.1,18.44c-4.69,20.35-7.39,42.22-3.87,44.12c1.88,1.14,6.8-4.56,11.49-11.41
		c3.52-5.51,8.91,3.61,4.93,9.13c-4.93,7.22-13.02,17.3-19,14.07c-6.1-3.42-6.8-16.54-5.51-30.99c-3.05,5.51-6.57,11.41-10.44,16.92
		C156.06,138.53,150.67,129.41,154.65,123.89z"/>
	<path d="M185.86,128.3v-1.14c0-27.38,19.35-46.78,25.57-31.76c5.28,12.36-6.22,28.14-17.59,37.84
		c2.11,11.98,11.03,12.36,24.98-8.75c3.63-5.9,9.03,3.42,5.04,8.94c-18.53,28.14-35.53,23.01-37.76-1.14
		c-0.23-0.76-0.35-1.52-0.35-2.47C185.75,129.44,185.75,128.87,185.86,128.3z M205.33,102.25c-1.52-3.42-9.03,3.42-11.26,16.92
		C201.11,112.52,206.5,105.1,205.33,102.25z"/>
	<path d="M257.08,98.26c-1.29,0-2.82-1.14-3.4-3.42c-0.82-1.52-3.05-0.76-8.09,0.95c-2.58,0.76,1.75-0.15-1.3,0.23
		c-1.17,19.4-13.25,45.07-24.86,36.89c-14.54-10.46-3.99-46.4,10.32-52.29c0.35-1.9,1.17-3.61,2.23-4.75
		c2.23-2.28,5.86-2.28,9.5,3.99c0.59,1.14,1.17,2.47,1.52,3.8c2.58-0.19-2.1,1.1,0.72,0.15c7.63-2.47,13.49-3.42,16.54,5.13
		C261.77,92.74,260.24,98.26,257.08,98.26z M236.89,95.06c-0.59-0.19-1.17-0.57-1.76-0.95c-0.94-0.38-1.76-1.14-2.46-1.9
		c-9.73,1.14-17.94,23.96-10.2,29.28C228.57,126.06,236.54,108.37,236.89,95.06z"/>
	<path d="M315.8,66.94c2,0,3.64,3.39,3.75,8.08c0.7,23.72-21.23,80.82-35.54,71.43c-6.1-4.17-7.62-17.73-6.8-34.67l0.35-5.47
		c-1.06,2.35-2.58,5.47-4.57,9.39c-7.27,15.12-15.95,34.15-21.82,27.89c-5.86-5.99-4.1-23.46-2.34-38.32
		c0.59-5.21,1.05-8.86,1.05-10.95c0-4.69,1.64-8.34,3.75-8.34s7.2,2.66,7.2,7.35c0,4.43-0.7,10.43-1.4,16.16
		c-1.29,10.95-2,17.47-1.76,17.73c1.17,1.3,3.59-9.96,9.92-22.73c4.93-10.17,8.68-18.25,11.61-18.25c4.57,0,6.33,9.12,5.51,27.63
		c-0.71,12.77-0.35,15.38,1.41,16.42c9.03,6,26.62-39.62,25.92-54.48C311.93,70.86,313.69,66.94,315.8,66.94z"/>
</g>
</svg>
