<?xml version="1.0" encoding="utf-8"?>
<!-- Generator: Adobe Illustrator 28.1.0, SVG Export Plug-In . SVG Version: 6.00 Build 0)  -->
<svg version="1.1" id="Layer_1" xmlns="http://www.w3.org/2000/svg" xmlns:xlink="http://www.w3.org/1999/xlink" x="0px" y="0px"
	 viewBox="0 0 320 320" style="enable-background:new 0 0 320 320;" xml:space="preserve">
<style type="text/css">
	.st0{fill:#FFFFFF;}
</style>
<g>
	<path d="M270,320H50c-27.6,0-50-22.4-50-50V50C0,22.4,22.4,0,50,0h220c27.6,0,50,22.4,50,50v220C320,297.6,297.6,320,270,320z"/>
	<g>
		<path class="st0" d="M249.5,94c13,0,23.5-10.5,23.5-23.5v0c0-13-10.5-23.5-23.5-23.5h-87.1h-4.7h-88c-13,0-23.5,10.5-23.5,23.5v0
			c0,13,10.5,23.5,23.5,23.5h66.8v41.6H92.4c-13,0-23.5,10.5-23.5,23.5v0c0,13,10.5,23.5,23.5,23.5h44.1V226H69.7
			c-13,0-23.5,10.5-23.5,23.5c0,13,10.5,23.5,23.5,23.5h179.8c13,0,23.5-10.5,23.5-23.5c0-13-10.5-23.5-23.5-23.5h-66v-43.3h44.1
			c13,0,23.5-10.5,23.5-23.5v0c0-13-10.5-23.5-23.5-23.5h-44.1V94H249.5z"/>
		<path class="st0" d="M217,189.1l-2.2,2.2c-6.3,6.3-6.3,16.5,0,22.8l5.5,5.5c6.3,6.3,16.5,6.3,22.8,0l2.2-2.2
			c6.3-6.3,6.3-16.5,0-22.8l-5.5-5.5C233.5,182.8,223.3,182.8,217,189.1z"/>
	</g>
</g>
</svg>
