<?xml version="1.0" encoding="utf-8"?>
<!-- Generator: Adobe Illustrator 28.1.0, SVG Export Plug-In . SVG Version: 6.00 Build 0)  -->
<svg version="1.1" id="Layer_1" xmlns="http://www.w3.org/2000/svg" xmlns:xlink="http://www.w3.org/1999/xlink" x="0px" y="0px"
	 viewBox="0 0 87 87" style="enable-background:new 0 0 87 87;" xml:space="preserve">
<style type="text/css">
	.st0{fill:#FFFFFF;}
</style>
<path class="st0" d="M73.4,0H13.6C6.1,0,0,6.1,0,13.6v59.8C0,80.9,6.1,87,13.6,87h59.8C80.9,87,87,80.9,87,73.4V13.6
	C87,6.1,80.9,0,73.4,0z M74.2,19.2c0,3.5-2.9,6.4-6.4,6.4H49.9v11.3h12c3.5,0,6.4,2.9,6.4,6.4v0c0,3.5-2.9,6.4-6.4,6.4h-12v11.8
	h17.9c3.5,0,6.4,2.9,6.4,6.4c0,3.5-2.9,6.4-6.4,6.4H18.9c-3.5,0-6.4-2.9-6.4-6.4c0-3.5,2.9-6.4,6.4-6.4h18.2V49.7h-12
	c-3.5,0-6.4-2.9-6.4-6.4v0c0-3.5,2.9-6.4,6.4-6.4h12V25.6H18.9c-3.5,0-6.4-2.9-6.4-6.4v0c0-3.5,2.9-6.4,6.4-6.4h23.9h1.3h23.7
	C71.4,12.8,74.2,15.6,74.2,19.2L74.2,19.2z M66.7,59.1l-0.6,0.6c-1.7,1.7-4.5,1.7-6.2,0l-1.5-1.5c-1.7-1.7-1.7-4.5,0-6.2l0.6-0.6
	c1.7-1.7,4.5-1.7,6.2,0l1.5,1.5C68.4,54.6,68.4,57.4,66.7,59.1z"/>
</svg>
