<?xml version="1.0" encoding="utf-8"?>
<!-- Generator: Adobe Illustrator 28.1.0, SVG Export Plug-In . SVG Version: 6.00 Build 0)  -->
<svg version="1.1" id="Layer_1" xmlns="http://www.w3.org/2000/svg" xmlns:xlink="http://www.w3.org/1999/xlink" x="0px" y="0px"
	 viewBox="0 0 87 87" style="enable-background:new 0 0 87 87;" xml:space="preserve">
<g>
	<path d="M19.77,38.02c0,0.57-0.19,0.98-0.35,1.24c-2.08,2.75-3.93,5.34-5.63,7.67v0.88c-0.1,6.84-1.66,15.29-4.48,23.22
		c-4.8,13.89-11.8,8.19-8.44-4.51c1.85-6.95,5.4-13.27,10.81-20.99c-0.1-2.13-0.38-2.8-0.9-2.95c-0.32,0.41-0.64,0.78-0.93,1.14
		c-1.82,1.87-2.85,1.5-3.26,0.1c-0.48-1.81,0.83-3.42,2.14-4.15c0.42-0.26,0.86-0.41,1.28-0.47c1.66-2.64,2.21-5.03,1.73-5.5
		c-0.99-1.09-3.64,2.38-5.82,5.55c-0.96,1.5-2.43-1.04-1.34-2.49c2.17-3.16,5.95-8.35,8.31-5.86c1.6,1.71,1.06,5.7-0.67,9.23
		c0.51,0.62,0.93,1.61,1.21,2.95c1.44-2.02,2.97-4.15,4.64-6.32C18.72,35.84,19.77,36.62,19.77,38.02z M7.56,69.49
		C9.93,62.7,11.3,55.86,11.65,50C7.15,56.63,4.33,62.02,2.8,67.88C0.27,77.21,3.88,80.01,7.56,69.49z"/>
	<path d="M16.63,38.58c2.49-3.47,4.41-7,5.75-10.21c0.48-1.81,0.96-3.47,1.37-4.72c0.54-1.71,1.15-2.49,1.95-1.66
		c0.7,0.83,0.45,1.87,0.06,3.37c-0.38,1.4-0.93,3.01-1.6,4.61c-0.74,2.75-1.44,5.91-2.05,8.81c3.1-5.13,7.51-11.66,9.5-8.92
		c2.21,3.16-2.49,7.57-5.18,9.9c-0.03,0.05-0.03,0.05,0.06,0.36c0.26,1.04,0.61,1.76,1.63,1.55c0.93-0.16,2.4-1.3,3.61-3.06
		c0.96-1.5,2.43,0.98,1.34,2.49c-1.44,2.13-3.45,3.63-4.7,3.89c-2.27,0.41-3.36-2.07-3.8-3.52c-0.16-0.57-0.22-1.09-0.26-1.56
		c-1.12,1.81-2.17,3.68-2.94,5.03c-1.12,2.07-2.59,0.83-2.17-1.87c0.22-1.55,0.58-3.42,0.99-5.39c-0.7,1.14-1.44,2.28-2.24,3.42
		C16.98,42.62,15.54,40.08,16.63,38.58z M30.28,32.41c-0.35-0.52-1.53,0.83-2.97,2.85C28.9,33.81,30.31,32.41,30.28,32.41z"/>
	<path d="M43.96,42.18c-1.57,2.26-3.25,4.4-4.63,3.88c-1.49-0.62-1.75-3.68-1.35-6.69c0.06-0.41,0.11-0.83,0.17-1.19
		c-1.18,1.71-3.07,5.18-4.54,7.78c-1.41,2.54-2.37,0.52-1.86-2.07l0.39-2.18c-0.11,0.21-0.25,0.41-0.37,0.57
		c-0.56,0.93-1.49,0.16-1.49-1.24c0-0.52,0.14-0.98,0.31-1.24c0.56-0.93,1.21-2.18,1.75-3.27c0.28-0.57,0.54-1.09,0.76-1.5
		c1.1-2.13,2.26-0.62,1.78,1.87L34.34,40c1.78-3.16,3.78-6.32,4.93-6.17c1.3,0.21,1.3,2.13,0.76,4.61
		c-0.11,0.62-0.23,1.14-0.31,1.66c-0.25,1.97-0.23,2.64,0,2.75c0.56,0.21,1.75-1.5,3.07-3.24C43.82,38.25,44.98,40.72,43.96,42.18z"
		/>
	<path d="M42.04,40.54c2.53-3.73,4.38-7.52,5.66-10.52c0.45-2.07,1.02-3.89,1.47-5.13c0.96-2.38,2.65-1.4,1.98,1.71
		c-0.26,1.14-0.83,2.95-1.66,5.03c-1.28,5.55-2.01,11.51-1.06,12.03c0.51,0.31,1.85-1.24,3.13-3.11c0.96-1.5,2.43,0.98,1.34,2.49
		c-1.34,1.97-3.55,4.72-5.18,3.84c-1.66-0.93-1.85-4.51-1.5-8.45c-0.83,1.5-1.79,3.11-2.85,4.61
		C42.43,44.53,40.96,42.05,42.04,40.54z"/>
	<path d="M50.55,41.74v-0.31c0-7.46,5.28-12.75,6.97-8.66c1.44,3.37-1.69,7.67-4.8,10.32c0.58,3.27,3.01,3.37,6.81-2.38
		c0.99-1.61,2.46,0.93,1.37,2.44c-5.05,7.67-9.69,6.27-10.29-0.31c-0.06-0.21-0.1-0.42-0.1-0.67C50.52,42.06,50.52,41.9,50.55,41.74
		z M55.86,34.64c-0.42-0.93-2.46,0.93-3.07,4.61C54.71,37.44,56.18,35.42,55.86,34.64z"/>
	<path d="M69.96,33.55c-0.35,0-0.77-0.31-0.93-0.93c-0.22-0.42-0.83-0.21-2.21,0.26c-0.7,0.21,0.48-0.04-0.36,0.06
		C66.16,38.23,62.86,45.23,59.7,43c-3.96-2.85-1.09-12.65,2.81-14.26c0.1-0.52,0.32-0.98,0.61-1.3c0.61-0.62,1.6-0.62,2.59,1.09
		c0.16,0.31,0.32,0.67,0.42,1.04c0.7-0.05-0.57,0.3,0.19,0.04c2.08-0.67,3.68-0.93,4.51,1.4C71.24,32.05,70.83,33.55,69.96,33.55z
		 M64.46,32.68c-0.16-0.05-0.32-0.16-0.48-0.26c-0.26-0.1-0.48-0.31-0.67-0.52c-2.65,0.31-4.89,6.53-2.78,7.98
		C62.19,41.13,64.37,36.31,64.46,32.68z"/>
	<path d="M85.97,25.02c0.54,0,0.99,0.92,1.02,2.2c0.19,6.47-5.79,22.03-9.69,19.47c-1.66-1.14-2.08-4.83-1.85-9.45l0.1-1.49
		c-0.29,0.64-0.7,1.49-1.25,2.56c-1.98,4.12-4.35,9.31-5.95,7.6c-1.6-1.63-1.12-6.4-0.64-10.45c0.16-1.42,0.29-2.42,0.29-2.98
		c0-1.28,0.45-2.27,1.02-2.27c0.58,0,1.96,0.72,1.96,2c0,1.21-0.19,2.84-0.38,4.41c-0.35,2.99-0.54,4.76-0.48,4.83
		c0.32,0.36,0.98-2.72,2.7-6.2c1.34-2.77,2.37-4.97,3.17-4.97c1.25,0,1.73,2.49,1.5,7.53c-0.19,3.48-0.1,4.19,0.38,4.48
		c2.46,1.63,7.26-10.8,7.07-14.85C84.92,26.08,85.4,25.02,85.97,25.02z"/>
</g>
</svg>
