<?xml version="1.0" encoding="utf-8"?>
<!-- Generator: Adobe Illustrator 28.1.0, SVG Export Plug-In . SVG Version: 6.00 Build 0)  -->
<svg version="1.1" id="Layer_1" xmlns="http://www.w3.org/2000/svg" xmlns:xlink="http://www.w3.org/1999/xlink" x="0px" y="0px"
	 viewBox="0 0 87 87" style="enable-background:new 0 0 87 87;" xml:space="preserve">
<style type="text/css">
	.st0{fill:#FFFFFF;}
</style>
<g>
	<path d="M73.4,87H13.6C6.1,87,0,80.9,0,73.4V13.6C0,6.1,6.1,0,13.6,0h59.8C80.9,0,87,6.1,87,13.6v59.8C87,80.9,80.9,87,73.4,87z"/>
	<g>
		<path class="st0" d="M67.8,25.6c3.5,0,6.4-2.9,6.4-6.4v0c0-3.5-2.9-6.4-6.4-6.4H44.1h-1.3H18.9c-3.5,0-6.4,2.9-6.4,6.4v0
			c0,3.5,2.9,6.4,6.4,6.4h18.2v11.3h-12c-3.5,0-6.4,2.9-6.4,6.4v0c0,3.5,2.9,6.4,6.4,6.4h12v11.8H18.9c-3.5,0-6.4,2.9-6.4,6.4
			c0,3.5,2.9,6.4,6.4,6.4h48.9c3.5,0,6.4-2.9,6.4-6.4c0-3.5-2.9-6.4-6.4-6.4H49.9V49.7h12c3.5,0,6.4-2.9,6.4-6.4v0
			c0-3.5-2.9-6.4-6.4-6.4h-12V25.6H67.8z"/>
		<path class="st0" d="M59,51.4L58.4,52c-1.7,1.7-1.7,4.5,0,6.2l1.5,1.5c1.7,1.7,4.5,1.7,6.2,0l0.6-0.6c1.7-1.7,1.7-4.5,0-6.2
			l-1.5-1.5C63.5,49.7,60.7,49.7,59,51.4z"/>
	</g>
</g>
</svg>
